 http://s19.postimage.org/bjskpvyhf/image.jpg

 
http://s19.postimage.org/nzpajmrtf/image.jpg

 
http://s19.postimage.org/gkzyr95xv/image.jpg


Storyline

Sonic the Hedgehog must stop the evil Dr. Robotnik from ruining Christmas after Santa Clause disappears 

Format                                   : MPEG-4
Format profile                           : Base Media
Codec ID                                 : isom
File size                                : 310 MiB
Duration                                 : 20mn 39s
Overall bit rate mode                    : Variable
Overall bit rate                         : 2 099 Kbps
Movie name                               : Sonic's Christmas Blast
Album                                    : DIC's Animated Christmas Special:  Inspector Gadget Saves Christmas and Sonic's Christmas Blast
Part/Position                            : 1
Part/Total                               : 1
Track name/Position                      : 2
Track name/Total                         : 2
Performer                                : DIC's Animated Christmas Special
Genre                                    : Kids
Recorded date                            : UTC 2010-12-13 08:00:00
Tagged date                              : UTC 2012-12-01 07:48:00
Cover                                    : Yes
desc                                     : SANTA CLAUS goes on television and announces his retirement.  HeΓÇÖs feeling too old, too fat, and the
ldes                                     : SANTA CLAUS goes on television and announces his retirement.  HeΓÇÖs feeling too old, too fat, and the North Pole is too cold for the bones in his pack-strained back.  But the world should not despair because he has the perfect successor.  In fact, he would not even have considered stepping down if he didnΓÇÖt know he could pass on his responsibilities to the popular, the holly, the perfect man for the job, the man he introduces now as ΓÇô ROBOTNIKLAUS!  Robotnik, in red suit, red hat, and phony white beard steps onto the screen to overwhelming amounts of electronically-augmented applause.  He emotionally accepts this high honor and announces he will be making a few small changes in the Christmas season.  And his concluding Ho-Ho-HoΓÇÖs sound more than a little ominous.

Video
ID                                       : 1
Format                                   : AVC
Format/Info                              : Advanced Video Codec
Format profile                           : Baseline@L3.0
Format settings, CABAC                   : No
Format settings, ReFrames                : 3 frames
Codec ID                                 : avc1
Codec ID/Info                            : Advanced Video Coding
Duration                                 : 20mn 38s
Bit rate                                 : 1 969 Kbps
Width                                    : 720 pixels
Height                                   : 480 pixels
Display aspect ratio                     : 3:2
Frame rate mode                          : Constant
Frame rate                               : 23.976 fps
Standard                                 : NTSC
Color space                              : YUV
Chroma subsampling                       : 4:2:0
Bit depth                                : 8 bits
Scan type                                : Progressive
Bits/(Pixel*Frame)                       : 0.238
Stream size                              : 291 MiB (94%)
Writing library                          : x264 core 102
Encoding settings                        : cabac=0 / ref=3 / deblock=1:0:0 / analyse=0x1:0x111 / me=hex / subme=7 / psy=1 / psy_rd=1.00:0.00 / mixed_ref=1 / me_range=16 / chroma_me=0 / trellis=0 / 8x8dct=0 / cqm=0 / deadzone=21,11 / fast_pskip=1 / chroma_qp_offset=-2 / threads=6 / sliced_threads=0 / nr=0 / decimate=1 / interlaced=0 / constrained_intra=0 / bframes=0 / weightp=0 / keyint=300 / keyint_min=25 / scenecut=40 / intra_refresh=0 / rc_lookahead=40 / rc=crf / mbtree=1 / crf=18.0 / qcomp=0.60 / qpmin=10 / qpmax=51 / qpstep=4 / ip_ratio=1.41 / aq=1:1.00

Audio
ID                                       : 2
Format                                   : AAC
Format/Info                              : Advanced Audio Codec
Format profile                           : LC
Codec ID                                 : 40
Duration                                 : 20mn 39s
Bit rate mode                            : Variable
Bit rate                                 : 128 Kbps
Maximum bit rate                         : 229 Kbps
Channel(s)                               : 2 channels
Channel positions                        : Front: L R
Sampling rate                            : 44.1 KHz
Compression mode                         : Lossy
Stream size                              : 18.9 MiB (6%)

